<?xml version="1.0" standalone="no"?><!DOCTYPE svg PUBLIC "-//W3C//DTD SVG 1.1//EN" "http://www.w3.org/Graphics/SVG/1.1/DTD/svg11.dtd"><svg t="1497352668903" class="icon" style="" viewBox="0 0 1024 1024" version="1.1" xmlns="http://www.w3.org/2000/svg" p-id="2805" xmlns:xlink="http://www.w3.org/1999/xlink" width="200" height="200"><defs><style type="text/css"></style></defs><path d="M819.075635 401.286144C819.075635 235.362816 681.077811 100.337152 511.50249 100.337152 341.927168 100.337152 203.929395 235.362816 203.929395 401.286144 203.929395 490.116096 255.191552 569.8176 306.45376 624.941568L306.45376 748.430848 306.45376 923.68384 460.240333 923.68384 460.240333 823.367168 562.764698 823.367168 562.764698 923.68384 716.55127 923.68384 716.55127 748.430848 716.55127 624.941568C767.813427 569.8176 819.075635 490.116096 819.075635 401.286144M921.6 401.286144C921.6 502.90688 870.337792 595.398144 819.075635 666.07104L819.075635 1024 203.929395 1024 203.929395 666.07104C152.667187 583.00928 88.538214 469.801984 105.044634 347.11552 129.291622 167.348224 280.566323 22.491648 464.802662 2.528768 712.193946-24.205824 921.6 164.589568 921.6 401.286144M357.715917 351.128064C329.419213 351.128064 306.45376 373.59872 306.45376 401.286144L306.45376 501.602304C306.45376 529.289728 329.419213 551.760896 357.715917 551.760896 386.012672 551.760896 408.978125 529.289728 408.978125 501.602304L408.978125 401.286144C408.978125 373.59872 386.012672 351.128064 357.715917 351.128064M716.55127 401.286144 716.55127 501.602304C716.55127 529.289728 693.585766 551.760896 665.289062 551.760896 636.992358 551.760896 614.026854 529.289728 614.026854 501.602304L614.026854 401.286144C614.026854 373.59872 636.992358 351.128064 665.289062 351.128064 693.585766 351.128064 716.55127 373.59872 716.55127 401.286144" p-id="2806" fill="#d81e06"></path></svg>