<?xml version="1.0" standalone="no"?><!DOCTYPE svg PUBLIC "-//W3C//DTD SVG 1.1//EN" "http://www.w3.org/Graphics/SVG/1.1/DTD/svg11.dtd"><svg t="1497350360918" class="icon" style="" viewBox="0 0 1024 1024" version="1.1" xmlns="http://www.w3.org/2000/svg" p-id="1435" xmlns:xlink="http://www.w3.org/1999/xlink" width="200" height="200"><defs><style type="text/css"></style></defs><path d="M782.142603 173.594687c-1.033539 19.22383-2.710738 38.916335-5.02034 58.908668l-3.89982 33.746592-5.725398 30.31033c-9.44 49.974182-23.01518 98.039897-40.349987 142.860708l-17.397229 42.227754-10.923794 21.184485c-18.60166 36.074613-39.282678 67.113537-61.46898 92.2531-21.717627 24.608467-44.398186 43.013653-67.413366 54.703903l-24.635073 12.512988 0 27.630291 0 73.379241 0 45.025473 45.025473 0 60.937884 0c4.344958 0 7.879458 3.5345 7.879458 7.879458l0 34.184567L364.847545 850.402243l0-34.184567c0-4.344958 3.5345-7.879458 7.879458-7.879458l58.891272 0 45.025473 0 0-45.025473 0-73.379241 0-27.628244-24.63405-12.512988c-23.01518-11.691273-45.695738-30.096459-67.413366-54.704926-22.187325-25.140587-42.868343-56.17951-61.46898-92.2531l-10.923794-21.184485-1.111311-0.135076-16.284895-42.097794c-17.334807-44.812625-30.91101-92.876294-40.352033-142.855592l-5.726421-30.3134-3.89982-33.743522c-2.310625-19.993357-3.987824-39.684838-5.021364-58.908668L782.142603 173.594687M460.505185 321.616952l-13.288654 0L319.665507 321.616952l99.285261 80.072687 14.904455 12.020778-4.26207 21.481244-21.919219 110.488417 92.040253-64.935941 12.271488-8.658194 12.218276 8.635681 96.730065 68.367087-26.892487-115.358331-4.757351-20.407796 14.185071-10.5421 109.215424-81.164554L576.6136 321.615928l-14.935154 0-8.739035-21.668509L511.606027 197.464327l-42.059931 102.187357L460.505185 321.616952M831.477218 128.569214 190.475146 128.569214c0 36.784788 5.484921 73.260537 9.627265 109.103884-70.530356 7.813966-110.561072 66.50467-90.25049 139.833769 20.664645 74.612325 96.113011 136.582725 173.255972 145.96235 40.040948 77.654614 91.066065 137.28676 148.510382 166.466336l0 73.379241-58.891272 0c-29.219485 0-52.90493 23.685445-52.90493 52.90493l0 79.21004 384.355855 0 0-79.21004c0-29.219485-23.685445-52.90493-52.90493-52.90493l-60.937884 0 0-73.379241c57.447387-29.179576 108.46841-88.811722 148.510382-166.466336 77.143984-9.379625 152.591327-71.350025 173.255972-145.96235 20.310581-73.327052-19.720134-132.019803-90.25049-139.833769C825.992297 201.829751 831.477218 165.354002 831.477218 128.569214L831.477218 128.569214zM769.140475 455.662901c18.022469-46.599318 32.512485-97.348142 42.599214-150.745283 28.770254 10.522658 43.551912 39.321564 33.935903 74.040297C835.975672 413.979546 804.499797 443.963441 769.140475 455.662901L769.140475 455.662901zM252.814959 455.660854c-35.361369-11.694343-66.837244-41.681308-76.538187-76.704986-9.616008-34.716686 5.166673-63.515592 33.935903-74.03825C220.299405 358.314759 234.790444 409.064606 252.814959 455.660854L252.814959 455.660854zM550.192857 443.952184l-38.182624-26.986631-38.251186 26.987654 0 0 9.56075-48.194652-36.103266-29.117155 43.446511 0 20.519336-49.852408 20.10592 49.852408 45.325301 0-37.880749 28.151154" p-id="1436" fill="#d81e06"></path></svg>