<?xml version="1.0" standalone="no"?><!DOCTYPE svg PUBLIC "-//W3C//DTD SVG 1.1//EN" "http://www.w3.org/Graphics/SVG/1.1/DTD/svg11.dtd"><svg t="1497351083042" class="icon" style="" viewBox="0 0 1024 1024" version="1.1" xmlns="http://www.w3.org/2000/svg" p-id="2474" xmlns:xlink="http://www.w3.org/1999/xlink" width="200" height="200"><defs><style type="text/css"></style></defs><path d="M756.76678 287.928815a167.68532 165.66502 0 1 1-481.256092 0 167.68532 165.66502 0 1 1 481.256092 0z" p-id="2475" fill="#8a8a8a"></path><path d="M513.207022 586.295406c-204.946825 0-374.902786 162.408285-371.309133 351.404647 0.040658 2.138925-0.037303-2.118759 0.004066 0.011282l-9.1e-05 0.002033c0.000112-0.003049 0.000549-0.002033 0.000549-0.002033l-0.172378 86.288665 171.137106 0c0.16509-17.525406-0.788798-35.051443-0.883744-52.569043 0-108.877955 89.56895-197.125818 200.048082-197.125818 110.479142 0 200.048082 88.247863 200.048082 197.125818 0.152639 17.505992 0 34.428121 0 52.569043l173.017133 0c0.021549-29.81635-0.006099-64.818679-0.031815-92.71842 0-190.536502-166.911368-344.986063-371.858193-344.986063z" p-id="2476" fill="#8a8a8a"></path></svg>